HIERARCHY
ROOT Hips
{
	OFFSET	0.00	0.00	0.00
	CHANNELS 6 Xposition Yposition Zposition Zrotation Xrotation Yrotation
	JOINT LeftUpLeg
	{
		OFFSET	 0.126116	-0.014019	-0.065224
		CHANNELS 3 Zrotation Xrotation Yrotation
		JOINT LeftLeg
		{
			OFFSET	 0.000000	 0.000000	 0.569914
			CHANNELS 3 Zrotation Xrotation Yrotation
			JOINT LeftFoot
			{
				OFFSET	 0.000000	 0.000000	 0.544423
				CHANNELS 3 Zrotation Xrotation Yrotation
				JOINT LeftToeBase
				{
					OFFSET	 0.000000	 0.000000	 0.207117
					CHANNELS 3 Zrotation Xrotation Yrotation
					End Site
					{
						OFFSET	 0.000000	 0.000000	 0.207117
					}
				}
			}
		}
	}
	JOINT RightUpLeg
	{
		OFFSET	-0.124023	-0.008373	-0.065224
		CHANNELS 3 Zrotation Xrotation Yrotation
		JOINT RightLeg
		{
			OFFSET	 0.000000	 0.000000	 0.570047
			CHANNELS 3 Zrotation Xrotation Yrotation
			JOINT RightFoot
			{
				OFFSET	 0.000000	 0.000000	 0.544354
				CHANNELS 3 Zrotation Xrotation Yrotation
				JOINT RightToeBase
				{
					OFFSET	 0.000000	 0.000000	 0.207540
					CHANNELS 3 Zrotation Xrotation Yrotation
					End Site
					{
						OFFSET	 0.000000	 0.000000	 0.207540
					}
				}
			}
		}
	}
	JOINT Spine
	{
		OFFSET	 0.000184	-0.007763	 0.117403
		CHANNELS 3 Zrotation Xrotation Yrotation
		JOINT Spine1
		{
			OFFSET	 0.000000	 0.000000	 0.137269
			CHANNELS 3 Zrotation Xrotation Yrotation
			JOINT Spine2
			{
				OFFSET	 0.000000	 0.000000	 0.156879
				CHANNELS 3 Zrotation Xrotation Yrotation
				JOINT LeftShoulder
				{
					OFFSET	 0.080501	-0.002496	 0.160144
					CHANNELS 3 Zrotation Xrotation Yrotation
					JOINT LeftArm
					{
						OFFSET	 0.000000	 0.000000	 0.164363
						CHANNELS 3 Zrotation Xrotation Yrotation
						JOINT LeftForeArm
						{
							OFFSET	 0.000000	 0.000000	 0.364576
							CHANNELS 3 Zrotation Xrotation Yrotation
							JOINT LeftHand
							{
								OFFSET	 0.000000	 0.000000	 0.360812
								CHANNELS 3 Zrotation Xrotation Yrotation
								JOINT LeftHandIndex1
								{
									OFFSET	 0.000000	 0.000000	 0.086006
									CHANNELS 3 Zrotation Xrotation Yrotation
									JOINT LeftHandIndex2
									{
										OFFSET	 0.000000	 0.000000	 0.047236
										CHANNELS 3 Zrotation Xrotation Yrotation
										JOINT LeftHandIndex3
										{
											OFFSET	-0.004284	-0.000551	 0.038166
											CHANNELS 3 Zrotation Xrotation Yrotation
											End Site
											{
												OFFSET	-0.004284	-0.000551	 0.038166
											}
										}
									}
								}
							}
						}
					}
				}
				JOINT Neck
				{
					OFFSET	 0.000000	 0.000000	 0.176489
					CHANNELS 3 Zrotation Xrotation Yrotation
					JOINT Head
					{
						OFFSET	 0.000000	-0.001747	 0.077940
						CHANNELS 3 Zrotation Xrotation Yrotation
						End Site
						{
							OFFSET	 0.000000	-0.001747	 0.077940
						}
					}
				}
				JOINT RightShoulder
				{
					OFFSET	-0.080363	 0.000306	 0.159706
					CHANNELS 3 Zrotation Xrotation Yrotation
					JOINT RightArm
					{
						OFFSET	 0.000000	 0.000000	 0.164196
						CHANNELS 3 Zrotation Xrotation Yrotation
						JOINT RightForeArm
						{
							OFFSET	 0.000000	 0.000000	 0.365611
							CHANNELS 3 Zrotation Xrotation Yrotation
							JOINT RightHand
							{
								OFFSET	 0.000000	 0.000000	 0.360648
								CHANNELS 3 Zrotation Xrotation Yrotation
								JOINT RightHandIndex1
								{
									OFFSET	 0.000000	 0.000000	 0.069977
									CHANNELS 3 Zrotation Xrotation Yrotation
									JOINT RightHandIndex2
									{
										OFFSET	 0.000000	 0.000000	 0.052305
										CHANNELS 3 Zrotation Xrotation Yrotation
										JOINT RightHandIndex3
										{
											OFFSET	 0.009002	-0.000782	 0.042196
											CHANNELS 3 Zrotation Xrotation Yrotation
											End Site
											{
												OFFSET	 0.009002	-0.000782	 0.042196
											}
										}
									}
								}
							}
						}
					}
				}
			}
		}
	}
}
MOTION
Frames:    5
Frame Time: 0.03333334
 0.012178	 0.064298	 1.201671	 4.179874	-1.790948	-3.602262	 19.011040	-10.493390	-175.249200	 0.363598	-39.254960	-0.004540	 59.754410	 82.305450	-63.133060	-2.371185	 31.314070	-0.063122	-21.773420	-30.812080	-174.517600	 10.263000	-52.941870	 8.802428	 5.549083	 71.151150	 0.897085	 2.357924	 33.153300	 0.106793	 0.644879	 8.923800	 1.023150	 1.459283	 3.253910	 2.854093	-7.867596	-2.764870	-3.702513	-93.783660	 58.854830	 175.731200	 10.329340	 27.803340	-43.595620	-0.869375	-0.048513	-0.652140	 0.493736	-6.913468	-6.018314	-4.870877	 19.207370	-2.785033	-3.886108	 21.414220	 2.207404	-4.807973	 5.548865	 0.146773	-0.122686	-5.019286	 0.160308	-9.932520	 1.812327	 2.284054	 89.828640	 61.586240	-179.889300	-19.498880	 50.307910	 10.583320	-0.893308	-1.908187	 10.622110	-4.956110	 7.120856	 0.757552	 6.303605	 25.907060	-0.574696	 1.740133	 45.849100	-6.863119	 0.364977	 24.979260	 3.650826
 0.010154	 0.020316	 1.194860	 5.231994	-1.244046	-3.592770	 18.655180	-9.383060	-176.197000	 1.056599	-40.120910	 0.453600	 75.982630	 83.971630	-79.759940	-2.369376	 31.618780	-0.070017	-25.783760	-34.693710	-176.976900	 10.457020	-48.643330	 8.465109	 0.939454	 75.127610	 5.342384	 2.358916	 33.007910	 0.103403	-6.053192	 8.648812	 0.909756	 1.345748	 3.262283	 2.890405	-8.037700	-2.940086	-3.688875	-93.984880	 58.960710	 175.289700	 8.751846	 24.813610	-43.741130	-5.243121	 0.106969	-2.256411	 0.551938	-7.059414	-7.717653	-4.869280	 19.265340	-2.792420	-3.877010	 21.530520	 2.198166	-4.805897	 5.573408	 0.145336	-0.064847	-5.086080	 0.194222	-9.891195	 1.772681	 2.040316	 89.763790	 61.671990	 179.956300	-19.323940	 51.828460	 7.305361	 2.071344	-1.548214	 14.701850	-4.478960	 7.842633	 0.450340	 6.289361	 24.481400	-0.538618	 1.933123	 44.312820	-7.035511	 0.598499	 23.958440	 3.531826
 0.007394	-0.038452	 1.186615	 6.084499	-0.445554	-3.661899	 18.284090	-7.362183	-177.425200	 1.418433	-40.127900	 0.686897	 102.750400	 85.223200	-106.545700	-2.367818	 31.875010	-0.075824	-29.921260	-37.349720	 179.328400	 10.105010	-39.438990	 6.950345	-8.704562	 75.137730	 14.694830	 2.359180	 32.968940	 0.102499	-12.280530	 8.102570	 0.794747	 1.140438	 3.516973	 2.974226	-8.210736	-3.241250	-3.732756	-94.202120	 58.994290	 174.822000	 6.480538	 21.352330	-43.877910	-8.882226	 0.435213	-3.786055	 0.828118	-7.341188	-8.476066	-4.861185	 19.470430	-2.805442	-3.864393	 21.691400	 2.185345	-4.802773	 5.610149	 0.143185	-0.021095	-5.120602	 0.258576	-9.901909	 1.741364	 1.903957	 89.676640	 61.825620	 179.747000	-19.052970	 53.530900	 4.578300	 4.488440	-0.692031	 16.369070	-4.287867	 8.544188	 0.033661	 6.267276	 22.930600	-0.562170	 2.110864	 42.811630	-7.192926	 0.933046	 22.463210	 3.367360
 0.004301	-0.098029	 1.175336	 6.503678	 0.328327	-4.048280	 18.395850	-4.937913	-178.495800	 1.626221	-39.757600	 0.814536	 137.498000	 85.210620	-141.182300	-2.365158	 32.299690	-0.085527	-32.315040	-39.082180	 176.188000	 10.016730	-30.486990	 5.514709	-13.626010	 73.215760	 18.797470	 2.361463	 32.627680	 0.094602	-18.064630	 7.442869	 1.000455	 0.965094	 3.898281	 3.023203	-8.338146	-3.514276	-3.777684	-94.387200	 58.983820	 174.429200	 4.510074	 18.663320	-44.024240	-13.094280	 0.953890	-5.307925	 0.356514	-7.927812	-7.968928	-4.844267	 19.852620	-2.820719	-3.846420	 21.919310	 2.167088	-4.792386	 5.732474	 0.136008	-0.002918	-5.191996	 0.321230	-9.952944	 1.700423	 1.869800	 89.542140	 61.976750	 179.421000	-18.390990	 54.731510	 2.862840	 6.397484	 0.338572	 16.165270	-4.360867	 9.333037	-1.036284	 6.234505	 21.048820	-0.628417	 2.279054	 41.309360	-7.340528	 1.357450	 20.511490	 3.169350
 0.000468	-0.151019	 1.160468	 6.632888	 0.693728	-4.394780	 18.683700	-2.461447	-179.732600	 1.752362	-39.729020	 0.894697	 164.009200	 84.270870	-167.441900	-2.357983	 33.376480	-0.110420	-32.627900	-42.968580	 173.981900	 9.866109	-28.151400	 5.057525	-23.745340	 80.181800	 27.921390	 2.351632	 34.035390	 0.127496	-23.260090	 6.929179	 1.251690	 0.870669	 4.619678	 2.960794	-8.380950	-3.819420	-3.757311	-94.480590	 58.960020	 174.233900	 2.780242	 17.068460	-44.346200	-16.967560	 1.621395	-6.725320	-0.448894	-7.940403	-7.490344	-4.823661	 20.258370	-2.822919	-3.822691	 22.218240	 2.142980	-4.768709	 6.010338	 0.119616	 0.025904	-5.287310	 0.345101	-9.940031	 1.631196	 1.784516	 89.436020	 62.054520	 179.162500	-17.213980	 55.475880	 0.975134	 8.010743	 1.334551	 16.440220	-4.255352	 9.805784	-2.604588	 6.191920	 18.848960	-0.717529	 2.558926	 38.617590	-7.582902	 1.817215	 18.329460	 2.968930
